<svg width="75" height="73" viewBox="0 0 75 73" fill="none" xmlns="http://www.w3.org/2000/svg">
<path d="M5.94295 73C5.86371 73 5.82409 72.9608 5.82409 72.8824C5.90333 72.8041 5.90333 72.7257 5.82409 72.6473C5.82409 72.6473 5.78447 72.6473 5.70523 72.6473C5.70523 72.7257 5.70523 72.8041 5.70523 72.8824C5.38827 72.7257 4.99208 72.6082 4.51664 72.5298C4.12044 72.4514 3.72425 72.2555 3.32805 71.942L1.54517 70.1787C1.38669 70.022 1.26783 69.7869 1.18859 69.4734C1.10935 69.16 0.950872 68.9249 0.713154 68.7681L0.356577 65.8293C0.356577 65.6726 0.277338 65.4766 0.118859 65.2415C0.0396199 65.0848 0 64.9281 0 64.7713C0 64.6146 0.0396199 64.3795 0.118859 64.066C0.277338 63.7525 0.396197 63.4391 0.475436 63.1256C0.475436 63.0472 0.396197 62.8513 0.237718 62.5378C0.316957 62.3027 0.475436 62.0676 0.713154 61.8325C0.950872 61.6758 1.10935 61.4799 1.18859 61.2448C1.26783 61.088 1.26783 60.9313 1.18859 60.7746C1.18859 60.6962 1.18859 60.5786 1.18859 60.4219C1.18859 60.1084 1.34707 59.795 1.66403 59.4815C1.98098 59.2464 2.25832 58.9721 2.49604 58.6586C2.73376 58.3451 2.85261 58.0317 2.85261 57.7182C3.16957 57.3264 3.48653 56.9345 3.80349 56.5427C4.19968 56.1508 4.55626 55.759 4.87322 55.3672C4.95246 55.2104 4.99208 54.8969 4.99208 54.4267L5.22979 54.0741C5.38827 53.9173 5.58637 53.7998 5.82409 53.7214C6.06181 53.7214 6.22029 53.6431 6.29952 53.4863C6.458 53.3296 6.57686 53.1728 6.6561 53.0161C6.81458 52.8594 6.97306 52.7418 7.13154 52.6634L7.48812 52.781C7.64659 52.3892 7.84469 52.1149 8.08241 51.9581C8.32013 51.8014 8.59747 51.6055 8.91442 51.3704L9.271 50.6651C9.35024 50.5867 9.4691 50.5475 9.62758 50.5475C9.86529 50.5475 10.0634 50.5083 10.2219 50.43C10.3804 49.9597 10.6577 49.6071 11.0539 49.372C11.4501 49.1369 11.6878 48.7059 11.767 48.0789C11.9255 48.0789 12.1236 48.0397 12.3613 47.9614C12.6783 47.883 12.8764 47.8438 12.9556 47.8438C13.1141 47.8438 13.1537 47.8438 13.0745 47.8438C13.0745 47.7654 13.0745 47.6871 13.0745 47.6087L13.3122 47.9614H13.6688C13.8273 47.883 13.8669 47.7654 13.7876 47.6087C13.7876 47.452 13.7876 47.3344 13.7876 47.256C13.9461 47.0993 14.1838 46.9426 14.5008 46.7858C14.8178 46.6291 14.9366 46.394 14.8574 46.0805C14.7781 45.9238 14.6593 45.8454 14.5008 45.8454C14.3423 45.767 14.2235 45.6887 14.1442 45.6103C14.065 45.4536 13.9461 45.2968 13.7876 45.1401C13.6292 44.905 13.4707 44.7483 13.3122 44.6699C13.3122 44.4348 13.2726 44.278 13.1933 44.1997L12.4802 43.847C12.1632 43.2201 11.767 42.6715 11.2916 42.2013C10.8162 41.6527 10.42 41.1433 10.103 40.6731C10.0238 40.438 9.98415 40.1245 9.98415 39.7327C9.98415 39.2625 9.78605 38.9882 9.38986 38.9098C9.0729 37.9694 8.91442 37.2641 8.91442 36.7939C8.91442 36.2453 8.99366 35.5008 9.15214 34.5604C9.15214 34.4037 9.11252 34.3253 9.03328 34.3253C8.95404 34.2469 8.91442 34.1685 8.91442 34.0902L9.50872 32.562V31.8567C9.50872 31.4648 9.58796 31.1122 9.74643 30.7987C9.98415 30.4069 10.2615 30.015 10.5784 29.6232C10.4992 29.5448 10.42 29.4665 10.3407 29.3881C10.2615 29.2313 10.103 29.153 9.86529 29.153C9.70681 29.153 9.62758 29.1922 9.62758 29.2705C9.70681 29.2705 9.66719 29.2705 9.50872 29.2705H9.38986C9.15214 29.2705 8.6767 29.1922 7.96355 29.0354C7.32964 28.8787 6.81458 28.7611 6.41838 28.6828C6.33914 28.3693 5.98257 28.0558 5.34865 27.7424H5.11094L4.87322 27.5072C4.95246 27.3505 5.0317 27.1938 5.11094 27.037C5.19017 26.8803 5.22979 26.7628 5.22979 26.6844C5.30903 26.6844 5.66561 26.8411 6.29952 27.1546C7.01268 27.3897 7.76545 27.664 8.55785 27.9775C9.35024 28.2126 9.82567 28.3301 9.98415 28.3301C10.1426 28.3301 10.2615 28.3301 10.3407 28.3301C10.4992 28.2517 10.6181 28.2126 10.6973 28.2126L15.8082 20.4541C16.2044 20.2974 16.6006 20.1015 16.9968 19.8663C17.393 19.6312 17.71 19.357 17.9477 19.0435C18.2647 18.5733 18.7401 18.1031 19.374 17.6329C20.0079 17.0843 20.523 16.6924 20.9192 16.4573C21.1569 16.3006 21.355 16.1047 21.5135 15.8696C21.7512 15.6345 21.9889 15.4385 22.2266 15.2818C22.3851 15.2034 22.6228 15.0859 22.9398 14.9291C23.336 14.7724 23.6133 14.6549 23.7718 14.5765C23.9303 14.4198 24.0887 14.2238 24.2472 13.9887C24.4849 13.6753 24.7227 13.4793 24.9604 13.401C25.1189 13.3226 25.3566 13.2442 25.6735 13.1659C25.9905 13.0875 26.2678 13.0091 26.5055 12.9308C26.664 12.774 26.8621 12.5781 27.0998 12.343C27.3376 12.0295 27.496 11.8728 27.5753 11.8728C27.7338 11.8728 27.7734 11.912 27.6941 11.9903C27.6149 11.9903 27.6545 11.9903 27.813 11.9903C27.9715 11.9903 28.2884 11.7944 28.7639 11.4026C29.3185 11.0107 29.7544 10.7756 30.0713 10.6973C31.0222 10.3054 32.1712 9.99195 33.5182 9.75685C34.8653 9.52174 35.5784 9.40419 35.6577 9.40419H36.8463C37.0048 9.40419 37.3217 9.40419 37.7972 9.40419C38.3518 9.40419 38.8669 9.36501 39.3423 9.28664C39.5008 9.44337 39.6989 9.56093 39.9366 9.63929C40.1743 9.63929 40.3724 9.71766 40.5309 9.8744C40.5309 9.95277 40.5705 10.0311 40.6498 10.1095C40.729 10.1879 40.8082 10.3054 40.8875 10.4622C41.046 10.4622 41.3233 10.5797 41.7195 10.8148C42.1157 10.9716 42.3534 11.0499 42.4326 11.0499C42.4326 11.3634 42.6704 11.6377 43.1458 11.8728C43.225 12.1079 43.3043 12.343 43.3835 12.5781C43.542 12.8132 43.6212 13.0091 43.6212 13.1659C43.6212 13.7144 43.3835 14.6549 42.9081 15.9871C42.9081 16.3006 43.0269 16.4965 43.2647 16.5749C43.1854 16.6532 43.1458 16.7708 43.1458 16.9275C43.1458 17.0059 43.1062 17.0843 43.0269 17.1626C42.71 17.1626 42.393 17.3194 42.0761 17.6329C41.8384 17.7112 41.6799 17.868 41.6006 18.1031C41.5214 18.2598 41.4025 18.4165 41.2441 18.5733C41.2441 18.73 41.3233 18.9651 41.4818 19.2786C41.0856 19.357 40.8875 19.5529 40.8875 19.8663C40.8875 20.1015 40.8082 20.3366 40.6498 20.5717C40.2536 20.5717 40.0159 20.65 39.9366 20.8068C39.3819 21.277 38.5895 21.9039 37.5594 22.6876C36.5293 23.3929 35.6973 23.9415 35.0634 24.3333C34.7464 24.4901 34.588 24.8035 34.588 25.2738C34.1918 25.2738 33.8352 25.5089 33.5182 25.9791C33.439 25.9791 33.3201 25.9399 33.1617 25.8615C33.0824 25.7831 32.9636 25.744 32.8051 25.744C32.7258 25.744 32.4089 25.9007 31.8542 26.2142C31.2995 26.5276 30.7845 26.7628 30.309 26.9195L30.0713 27.1546C29.9128 27.1546 29.7544 27.233 29.5959 27.3897C29.4374 27.4681 29.2789 27.5856 29.1204 27.7424C29.1204 27.5856 29.0808 27.5072 29.0016 27.5072C28.4469 27.5072 27.8526 27.5856 27.2187 27.7424C27.1395 27.8207 27.0206 27.8991 26.8621 27.9775C26.7829 28.0558 26.664 28.095 26.5055 28.095C26.4263 28.1734 26.3471 28.1734 26.2678 28.095C26.1886 28.0166 26.0697 28.0166 25.9113 28.095C25.832 28.095 25.6735 28.2126 25.4358 28.4477C25.1981 28.6044 25 28.722 24.8415 28.8003C24.7623 28.8003 24.683 28.8003 24.6038 28.8003C24.5246 28.722 24.4057 28.6828 24.2472 28.6828C23.7718 28.6828 23.4548 28.8395 23.2964 29.153C23.1379 29.3881 22.9794 29.5056 22.8209 29.5056C22.7417 29.5056 22.6228 29.5448 22.4643 29.6232C22.3851 29.7016 22.2662 29.7407 22.1078 29.7407C21.9493 29.8191 21.8701 29.8191 21.8701 29.7407C21.9493 29.584 21.9097 29.5448 21.7512 29.6232C21.5927 29.6232 21.5531 29.6624 21.6323 29.7407C21.7116 29.7407 21.6719 29.7407 21.5135 29.7407C21.355 29.7407 21.2361 29.7016 21.1569 29.6232C21.1569 29.5448 21.1173 29.4665 21.038 29.3881C20.2456 29.2313 19.5325 29.153 18.8986 29.153C18.6609 29.153 18.3835 29.2313 18.0666 29.3881C17.9873 29.4665 17.9873 29.5448 18.0666 29.6232C18.1458 29.6232 18.1458 29.6232 18.0666 29.6232C17.8288 29.7016 17.5515 29.8191 17.2346 29.9758C16.9968 30.0542 16.7591 30.1718 16.5214 30.3285C16.4422 30.1718 16.3233 30.015 16.1648 29.8583C16.0856 29.7016 15.8875 29.6232 15.5705 29.6232C15.3328 29.7016 15.1743 29.9758 15.0951 30.4461C15.0158 30.9163 14.9762 31.2689 14.9762 31.504C14.9762 31.8959 14.9366 32.1702 14.8574 32.3269L13.7876 34.0902C13.7084 34.482 13.5499 34.9914 13.3122 35.6184C13.0745 36.2453 12.9556 36.6371 12.9556 36.7939L13.3122 37.4992V37.8519C13.3122 38.4004 13.4311 38.9098 13.6688 39.38V40.438C13.6688 40.438 13.6292 40.438 13.5499 40.438C13.5499 40.3596 13.5499 40.3988 13.5499 40.5556C13.5499 40.7907 13.748 41.1041 14.1442 41.496V41.7311C14.1442 42.2797 14.3027 42.7107 14.6197 43.0242C14.9366 43.3376 15.2536 43.7295 15.5705 44.1997C15.9667 44.5915 16.2441 44.7874 16.4025 44.7874H16.7591C16.9176 44.7874 17.2345 44.5915 17.71 44.1997C18.1854 43.7295 18.5816 43.3768 18.8986 43.1417C18.9778 43.0633 19.0174 42.9066 19.0174 42.6715L20.0872 42.3188C20.3249 42.1621 20.523 42.0054 20.6815 41.8486C20.8399 41.6919 21.038 41.5352 21.2758 41.3784C22.0681 40.7515 22.8605 40.2813 23.6529 39.9678C24.4453 39.6543 25.2377 39.2625 26.0301 38.7923C26.1886 38.6355 26.3471 38.4004 26.5055 38.087C26.664 37.7735 26.8621 37.5776 27.0998 37.4992C27.4168 37.3425 27.6941 37.1857 27.9319 37.029C28.1696 36.8723 28.3677 36.7547 28.5262 36.6763C28.9223 36.4412 29.3582 36.3237 29.8336 36.3237C29.9921 36.0102 30.2298 35.7751 30.5468 35.6184C30.9429 35.3833 31.3391 35.1873 31.7353 35.0306C32.2108 34.8739 32.607 34.6779 32.9239 34.4428C33.0824 34.3645 33.2409 34.2077 33.3994 33.9726C33.5578 33.7375 33.6767 33.62 33.7559 33.62C33.9144 33.62 34.0333 33.6592 34.1125 33.7375C34.271 33.7375 34.4295 33.6983 34.588 33.62C34.7464 33.62 34.9445 33.5416 35.1823 33.3849C35.4992 33.1498 35.7369 32.993 35.8954 32.9147L36.6086 32.6796C36.767 32.6012 36.8859 32.4836 36.9651 32.3269C37.1236 32.1702 37.2821 32.0526 37.4406 31.9742C37.599 31.8175 37.8368 31.6999 38.1537 31.6216C38.5499 31.5432 38.8669 31.4648 39.1046 31.3865C39.1838 31.3081 39.2235 31.1122 39.2235 30.7987C39.5404 30.642 39.897 30.4069 40.2932 30.0934C40.6894 29.7799 40.9667 29.4665 41.1252 29.153C41.2044 29.0746 41.3233 28.9571 41.4818 28.8003C41.6403 28.6436 41.7987 28.5652 41.9572 28.5652C42.1157 28.5652 42.1553 28.6044 42.0761 28.6828C41.9968 28.6828 42.0365 28.6828 42.1949 28.6828C42.3534 28.6044 42.4723 28.4869 42.5515 28.3301C42.71 28.1734 42.8288 28.0558 42.9081 27.9775C43.3835 27.8207 43.859 27.7424 44.3344 27.7424C44.5721 27.5072 44.691 27.3505 44.691 27.2721C44.9287 27.1154 45.206 26.9979 45.523 26.9195C45.8399 26.8411 46.1569 26.7236 46.4739 26.5668C46.5531 26.5668 46.6323 26.4885 46.7116 26.3317C46.7908 26.175 46.8701 26.0966 46.9493 26.0966C47.2663 25.9399 47.5832 25.8223 47.9002 25.744C48.2171 25.6656 48.5341 25.5872 48.851 25.5089C49.0095 25.4305 49.1284 25.3129 49.2076 25.1562C49.3661 24.9211 49.4849 24.7252 49.5642 24.5684C49.6434 24.4901 49.8415 24.4509 50.1585 24.4509L50.3962 24.2158C51.1886 23.9023 51.664 23.628 51.8225 23.3929C52.0602 23.1578 52.4168 22.8835 52.8922 22.5701C53.13 22.4133 53.4865 22.2566 53.962 22.0998C54.5166 21.8647 54.9525 21.5904 55.2694 21.277C55.2694 21.1986 55.2298 21.1202 55.1506 21.0419C54.9128 21.1202 54.5563 21.1202 54.0808 21.0419C54.0808 20.8851 54.0412 20.7676 53.962 20.6892C54.0412 20.6892 54.1204 20.65 54.1997 20.5717C54.2789 20.4149 54.3582 20.2974 54.4374 20.219C54.4374 20.2974 54.5166 20.4149 54.6751 20.5717C54.8336 20.4149 54.9128 20.2582 54.9128 20.1015C55.2298 20.1798 55.5071 20.2582 55.7449 20.3366C56.0618 20.3366 56.2995 20.3366 56.458 20.3366C56.6165 20.3366 56.7353 20.2582 56.8146 20.1015C56.9731 19.8663 57.1315 19.7096 57.29 19.6312C57.4485 19.4745 57.6862 19.357 58.0032 19.2786C58.3201 19.2002 58.6371 19.0827 58.954 18.9259C59.1918 18.7692 59.3899 18.6125 59.5483 18.4557C59.7068 18.2206 59.8653 17.9855 60.0238 17.7504C60.1823 17.5937 60.3011 17.5545 60.3803 17.6329C60.5388 17.6329 60.6577 17.5937 60.7369 17.5153C61.5293 16.9667 62.2821 16.4181 62.9952 15.8696C63.7876 15.2426 64.58 14.5373 65.3724 13.7536L65.6101 13.5185C65.6101 13.5185 65.8082 13.5185 66.2044 13.5185C66.3629 13.4402 66.4818 13.3618 66.561 13.2834C66.7195 13.1267 66.8384 13.0091 66.9176 12.9308C66.9176 12.774 66.878 12.6565 66.7987 12.5781C67.0365 12.5781 67.1949 12.6173 67.2742 12.6957C67.4326 12.5389 67.5911 12.3038 67.7496 11.9903C67.9873 11.5985 68.1854 11.3242 68.3439 11.1675C68.5816 10.854 69.0174 10.5405 69.6513 10.2271C70.2853 9.83522 70.4437 9.40419 70.1268 8.93398C70.3645 8.85561 70.6022 8.73806 70.8399 8.58132C71.1569 8.42459 71.4739 8.26785 71.7908 8.11111C71.9493 7.79764 72.1474 7.52335 72.3851 7.28825C72.7021 6.97478 72.9398 6.6613 73.0983 6.34783C73.336 5.87762 73.5341 5.28986 73.6926 4.58454C73.851 3.87923 73.9303 3.48738 73.9303 3.40902C73.9303 3.25228 73.851 3.13473 73.6926 3.05636C73.6133 2.97799 73.5737 2.89963 73.5737 2.82126C73.4945 2.66452 73.4548 2.4686 73.4548 2.2335C73.5341 1.99839 73.4945 1.84165 73.336 1.76329C73.2567 1.60655 73.0983 1.44981 72.8605 1.29308C72.6228 1.13634 72.4247 1.01879 72.2662 0.940419V0.117552C72.3455 0.117552 72.4247 0.117552 72.504 0.117552C72.6624 0.0391828 72.7813 0 72.8605 0C73.019 0 73.1775 0.0391828 73.336 0.117552C73.5737 0.19592 73.7718 0.235105 73.9303 0.235105C73.9303 0.391841 73.9699 0.548577 74.0491 0.705314C74.1284 0.783681 74.2076 0.901234 74.2869 1.05797C74.2869 1.13634 74.2472 1.21471 74.168 1.29308C74.168 1.29308 74.168 1.33226 74.168 1.41063C74.3265 1.7241 74.4849 2.19431 74.6434 2.82126C74.8019 3.36984 74.9208 3.72249 75 3.87923C75 3.87923 74.9604 3.91841 74.8811 3.99678C74.8019 3.99678 74.8019 4.1927 74.8811 4.58454L74.6434 5.28986C74.4057 5.52496 74.2472 5.79925 74.168 6.11272C74.168 6.34783 74.1284 6.6613 74.0491 7.05314V7.52335C73.9699 7.83683 73.7718 8.07193 73.4548 8.22867C73.1379 8.3854 73.019 8.65969 73.0983 9.05153C72.7813 9.05153 72.4643 9.20827 72.1474 9.52174V9.75685C72.1474 10.4622 71.9493 11.0107 71.5531 11.4026H71.1965C71.038 11.4026 70.8003 11.3242 70.4834 11.1675V11.6377C70.4834 11.9512 70.3249 12.1471 70.0079 12.2254C69.7702 12.3038 69.5325 12.4214 69.2948 12.5781C69.2948 12.4214 69.2552 12.3038 69.1759 12.2254C69.0967 12.3038 69.0571 12.343 69.0571 12.343C69.0571 12.343 69.0174 12.3822 68.9382 12.4606L69.0571 12.9308C69.0571 12.9308 69.0174 12.9308 68.9382 12.9308C68.859 12.9308 68.7797 12.8916 68.7005 12.8132C68.6212 12.8916 68.5816 13.0483 68.5816 13.2834C68.3439 13.2834 68.1854 13.3226 68.1062 13.401C67.9477 13.6361 67.5911 14.0279 67.0365 14.5765C66.561 15.1251 66.1648 15.4777 65.8479 15.6345C65.6101 15.7128 65.3328 15.9088 65.0159 16.2222C64.7781 16.4573 64.58 16.5749 64.4216 16.5749C64.3423 16.6532 64.3027 16.6532 64.3027 16.5749C64.3819 16.4965 64.3423 16.4965 64.1838 16.5749C64.1046 16.5749 63.8669 16.6533 63.4707 16.81C63.1537 16.9667 62.8764 17.1235 62.6387 17.2802L62.401 17.7504L61.0935 18.3382C60.7766 18.4949 60.4992 18.6516 60.2615 18.8084C60.103 18.9651 59.9445 19.1218 59.7861 19.2786V19.3961C59.7861 19.788 59.588 20.0231 59.1918 20.1015C58.8748 20.1015 58.5975 20.1798 58.3598 20.3366C58.439 20.4149 58.5975 20.4933 58.8352 20.5717C59.0729 20.65 59.2314 20.7676 59.3106 20.9243C59.3899 21.0027 59.4691 21.1202 59.5483 21.277C59.6276 21.4337 59.7068 21.5905 59.7861 21.7472C59.9445 21.9039 60.103 22.0607 60.2615 22.2174C60.4992 22.3741 60.6577 22.5309 60.7369 22.6876L61.3312 23.8631C61.3312 24.0199 61.4105 24.255 61.5689 24.5684C61.252 25.3521 61.3312 25.9007 61.8067 26.2142C61.9651 26.5276 62.0444 26.8019 62.0444 27.037C62.0444 27.1154 62.0048 27.233 61.9255 27.3897C61.8463 27.5464 61.8067 27.7032 61.8067 27.8599C61.7274 28.095 61.6482 28.4085 61.5689 28.8003C61.5689 29.1922 61.4897 29.584 61.3312 29.9758C61.3312 29.9758 61.252 30.0542 61.0935 30.211C60.7766 30.9946 60.3407 31.7391 59.7861 32.4444C59.3106 33.1498 58.7956 33.7375 58.2409 34.2077C58.0032 34.4428 57.6862 34.7955 57.29 35.2657C56.8938 35.7359 56.6957 35.971 56.6957 35.971L55.1506 37.8519C55.1506 37.7735 55.0713 37.7343 54.9128 37.7343C54.8336 37.7343 54.5959 37.891 54.1997 38.2045C53.8827 38.4396 53.5658 38.6355 53.2488 38.7923C53.0903 38.7923 53.0111 38.9098 53.0111 39.1449L50.5151 40.5556C50.4358 40.6339 50.2773 40.7907 50.0396 41.0258C49.8811 41.1825 49.7227 41.2609 49.5642 41.2609C49.4849 41.2609 49.4057 41.2609 49.3265 41.2609C49.3265 41.1825 49.3265 41.1433 49.3265 41.1433L44.2155 43.847C44.2155 43.847 43.8986 44.0038 43.2647 44.3172C42.6307 44.6307 41.9968 44.9442 41.3629 45.2577C40.729 45.4928 40.3328 45.6103 40.1743 45.6103C40.0951 45.6103 40.0555 45.6103 40.0555 45.6103C40.0555 45.5319 39.9762 45.4928 39.8178 45.4928C39.6593 45.4928 39.2631 45.6495 38.6292 45.963C38.0745 46.2764 37.7179 46.4724 37.5594 46.5507C37.401 46.5507 37.3217 46.5115 37.3217 46.4332C37.401 46.3548 37.3613 46.3548 37.2029 46.4332H37.084C36.8463 46.6683 36.6878 46.7858 36.6086 46.7858C36.3708 46.8642 36.0143 47.0209 35.5388 47.256C35.1426 47.4128 34.8653 47.4911 34.7068 47.4911C34.5483 47.5695 34.4691 47.5695 34.4691 47.4911C34.4691 47.4128 34.3899 47.4128 34.2314 47.4911C34.1521 47.4911 33.954 47.5695 33.6371 47.7262C33.3994 47.8046 33.1617 47.9222 32.9239 48.0789H32.6862C32.607 48.0789 32.4881 48.1181 32.3296 48.1965C32.2504 48.2748 32.1315 48.314 31.9731 48.314C31.8146 48.314 31.6957 48.314 31.6165 48.314C31.5372 48.2356 31.4184 48.2356 31.2599 48.314C31.1807 48.314 30.9429 48.4316 30.5468 48.6667C30.1506 48.8234 29.794 48.9801 29.477 49.1369C29.3185 48.9801 29.1204 48.8626 28.8827 48.7842C28.645 48.6275 28.4073 48.5491 28.1696 48.5491H26.7433C26.5848 48.5491 26.4659 48.6275 26.3867 48.7842C26.3867 48.941 26.3074 49.0193 26.149 49.0193H23.6529L21.6323 48.9018C21.6323 48.745 21.5135 48.6275 21.2758 48.5491C21.1173 48.3924 20.9588 48.3532 20.8003 48.4316C20.6418 48.4316 20.5626 48.4707 20.5626 48.5491C20.6418 48.5491 20.6022 48.5491 20.4437 48.5491C20.2853 48.5491 20.0872 48.4316 19.8494 48.1965C19.6117 47.9614 19.4136 47.8046 19.2552 47.7262L19.0174 47.9614C18.9382 47.9614 18.7797 47.9614 18.542 47.9614C18.3043 47.9614 18.1062 47.9222 17.9477 47.8438C17.8685 47.6871 17.71 47.5303 17.4723 47.3736C17.3138 47.2169 17.1553 47.1385 16.9968 47.1385C16.8384 47.2169 16.6403 47.3736 16.4025 47.6087C16.2441 47.8438 16.0856 48.0397 15.9271 48.1965L13.7876 49.7246C13.7084 49.803 13.6688 49.9597 13.6688 50.1949C13.3518 50.2732 12.9556 50.5083 12.4802 50.9002C12.0048 51.292 11.4897 51.6838 10.935 52.0757C10.8558 52.0757 10.8558 52.0757 10.935 52.0757C11.0143 52.1541 11.0143 52.2324 10.935 52.3108C10.6181 52.6243 10.1823 53.0553 9.62758 53.6039C9.0729 54.1524 8.59746 54.7402 8.20127 55.3672C7.2504 56.6994 6.33914 57.8749 5.46751 58.8937C4.67512 59.9909 3.96197 61.3231 3.32805 62.8905C3.01109 63.7525 2.77338 64.5362 2.6149 65.2415C2.45642 66.0252 2.4168 66.7305 2.49604 67.3575C2.49604 67.4359 2.49604 67.5926 2.49604 67.8277C2.49604 68.0628 2.53566 68.2587 2.6149 68.4155C2.93186 69.1208 3.16957 69.7477 3.32805 70.2963C3.56577 70.8449 4.08082 71.3151 4.87322 71.7069C5.0317 71.7853 5.22979 71.7853 5.46751 71.7069C5.70523 71.7069 5.98257 71.7069 6.29952 71.7069C6.458 71.7069 6.6561 71.7461 6.89382 71.8245C7.21078 71.9812 7.48811 72.0596 7.72583 72.0596C7.72583 72.3731 7.80507 72.6082 7.96355 72.7649C7.64659 72.7649 7.2504 72.8041 6.77496 72.8824C6.37876 72.9608 6.10143 73 5.94295 73ZM16.7591 28.2126C17.2346 28.2126 17.7892 28.1734 18.4231 28.095C19.1363 28.0166 19.5325 27.9775 19.6117 27.9775C19.7702 27.9775 20.1664 27.8991 20.8003 27.7424C21.4342 27.5072 21.87 27.3505 22.1078 27.2721C22.5832 27.1154 23.0983 27.037 23.6529 27.037C24.2076 27.037 24.7227 26.9979 25.1981 26.9195C25.4358 26.8411 25.7132 26.7236 26.0301 26.5668C26.4263 26.4101 26.664 26.3317 26.7433 26.3317C26.9017 26.3317 26.981 26.3317 26.981 26.3317C27.0602 26.2534 27.1395 26.175 27.2187 26.0966C27.3772 26.0966 27.5753 26.0183 27.813 25.8615C28.13 25.7048 28.3281 25.6264 28.4073 25.6264C28.5658 25.548 28.645 25.548 28.645 25.6264C28.645 25.7048 28.6846 25.7048 28.7639 25.6264C28.9223 25.6264 29.3185 25.4305 29.9525 25.0387C30.5864 24.6468 31.2203 24.255 31.8542 23.8631C32.4881 23.4713 32.8447 23.2754 32.9239 23.2754C33.0824 23.2754 33.3201 23.2362 33.6371 23.1578C33.954 23.0011 34.2314 22.9227 34.4691 22.9227C34.3899 22.6876 34.3502 22.5309 34.3502 22.4525C34.4295 22.3741 34.5087 22.2958 34.588 22.2174L34.8257 22.4525C34.8257 22.2958 34.9049 22.139 35.0634 21.9823C35.2219 21.9823 35.3407 21.9823 35.42 21.9823C35.5785 21.9039 35.6577 21.8647 35.6577 21.8647C36.5293 21.2378 37.084 20.7676 37.3217 20.4541C37.5594 20.1406 37.8368 19.8272 38.1537 19.5137C38.233 19.357 38.2726 19.2002 38.2726 19.0435C38.2726 18.8867 38.3122 18.7692 38.3914 18.6908C38.5499 18.3774 38.748 18.1422 38.9857 17.9855C39.2235 17.7504 39.3819 17.5545 39.4612 17.3977C39.6197 17.241 39.6593 17.1235 39.58 17.0451C39.58 16.8884 39.6197 16.7708 39.6989 16.6924C39.6989 16.6924 39.6989 16.6532 39.6989 16.5749C39.6989 16.4965 39.6593 16.4181 39.58 16.3398C39.6593 16.1047 39.6989 15.8304 39.6989 15.5169C39.7781 15.2034 39.8574 14.9683 39.9366 14.8116C39.6197 14.8116 39.4612 14.694 39.4612 14.4589C39.4612 14.3806 39.4612 14.3414 39.4612 14.3414C39.5404 14.263 39.58 14.1847 39.58 14.1063L39.2235 13.6361C39.065 13.4793 38.7876 13.2834 38.3914 13.0483C38.0745 12.7348 37.8368 12.5781 37.6783 12.5781L36.4897 12.8132C36.4105 12.8132 36.3708 12.8524 36.3708 12.9308C36.3708 13.0091 36.2916 13.0875 36.1331 13.1659C36.0539 13.1659 35.935 13.1659 35.7765 13.1659C35.6973 13.0875 35.5785 13.0483 35.42 13.0483C35.2615 13.0483 35.2219 13.0875 35.3011 13.1659C35.4596 13.2442 35.4596 13.2834 35.3011 13.2834C34.9842 13.2834 34.7464 13.401 34.588 13.6361L34.2314 13.401C33.9144 13.4793 33.5578 13.5577 33.1617 13.6361C32.7655 13.7144 32.4485 13.832 32.2108 13.9887C32.1315 14.0671 32.0127 14.2238 31.8542 14.4589C31.775 14.694 31.6561 14.8116 31.4976 14.8116C31.3391 14.8116 31.2995 14.7724 31.3788 14.694C31.458 14.5373 31.4184 14.4981 31.2599 14.5765C31.1807 14.5765 30.8637 14.7332 30.309 15.0467C29.8336 15.2818 29.4374 15.4777 29.1204 15.6345C28.4865 15.9479 27.813 16.3398 27.0998 16.81C26.3867 17.2802 25.7132 17.7504 25.0792 18.2206C24.9208 18.6125 24.6038 19.0043 24.1284 19.3961L23.5341 19.6312C23.3756 19.788 23.0983 20.0623 22.7021 20.4541C22.3851 20.846 22.0285 21.1202 21.6323 21.277C21.5531 21.4337 21.3946 21.6296 21.1569 21.8647C20.9192 22.0998 20.7211 22.2958 20.5626 22.4525C20.3249 22.766 20.0872 23.1186 19.8494 23.5105C19.691 23.9023 19.4136 24.2158 19.0174 24.4509C18.7005 24.9995 18.3043 25.5872 17.8288 26.2142C17.4326 26.7628 17.0365 27.233 16.6403 27.6248L16.7591 28.2126ZM28.2884 47.7262C28.2884 47.4911 28.3677 47.3736 28.5262 47.3736C28.6846 47.3736 28.8431 47.4128 29.0016 47.4911C29.2393 47.5695 29.3978 47.5695 29.477 47.4911C29.6355 47.4911 30.1109 47.3736 30.9033 47.1385C31.6957 46.825 32.1315 46.6683 32.2108 46.6683C32.3693 46.5899 32.4089 46.5899 32.3296 46.6683C32.3296 46.7466 32.4089 46.7466 32.5674 46.6683C32.7258 46.6683 32.8843 46.6291 33.0428 46.5507C33.2013 46.394 33.3201 46.3156 33.3994 46.3156C33.5578 46.3156 33.5975 46.3548 33.5182 46.4332C33.5182 46.5115 33.5975 46.5507 33.7559 46.5507C34.0729 46.4724 34.6672 46.2373 35.5388 45.8454C36.4105 45.3752 36.9255 45.1009 37.084 45.0225C37.084 44.7091 37.1236 44.5132 37.2029 44.4348C37.5198 44.4348 37.8764 44.4348 38.2726 44.4348C38.6688 44.3564 38.9065 44.3172 38.9857 44.3172C39.1442 44.3172 39.2235 44.3172 39.2235 44.3172C39.3027 44.2389 39.3819 44.1997 39.4612 44.1997C39.6197 44.1997 39.8178 44.1213 40.0555 43.9646C40.2932 43.7295 40.4913 43.5727 40.6498 43.4944C40.729 43.3376 40.729 43.2201 40.6498 43.1417C40.6498 42.985 40.6498 42.8674 40.6498 42.7891C40.8082 42.6323 40.9667 42.5148 41.1252 42.4364C41.3629 42.2797 41.5214 42.2013 41.6006 42.2013C41.7591 42.2013 41.8384 42.2405 41.8384 42.3188C41.8384 42.3972 41.9176 42.4364 42.0761 42.4364C42.393 42.4364 42.5911 42.3972 42.6704 42.3188C42.8288 42.1621 42.9873 42.0446 43.1458 41.9662C43.3043 41.8094 43.4628 41.7311 43.6212 41.7311C43.7797 41.6527 43.859 41.6527 43.859 41.7311C43.9382 41.8094 44.0174 41.8094 44.0967 41.7311C44.2552 41.7311 44.4929 41.5743 44.8098 41.2609C45.206 40.9474 45.523 40.7123 45.7607 40.5556L47.4247 38.6747C47.7417 38.6747 48.0983 38.7139 48.4945 38.7923C48.9699 38.8706 49.3265 38.8315 49.5642 38.6747V38.3221C49.5642 38.2437 49.5642 38.2045 49.5642 38.2045C49.6434 38.2045 49.683 38.1653 49.683 38.087C49.8415 37.5384 50 37.2249 50.1585 37.1465L51.1094 36.6763C51.1886 36.7547 51.2282 36.8331 51.2282 36.9114C51.3867 36.5196 51.7829 36.1278 52.4168 35.7359C53.0507 35.2657 53.5262 34.9522 53.8431 34.7955C53.7639 34.6388 53.7243 34.482 53.7243 34.3253C53.8035 34.1685 54.0016 34.0902 54.3185 34.0902C54.3185 34.0118 54.2789 33.9726 54.1997 33.9726C54.1997 33.8943 54.1997 33.8159 54.1997 33.7375C54.1997 33.1106 54.5166 32.6404 55.1506 32.3269V31.9742H55.2694C55.6656 31.9742 55.943 31.7783 56.1014 31.3865C56.3391 30.9163 56.5372 30.5244 56.6957 30.211C56.8542 30.211 56.9731 30.1718 57.0523 30.0934C57.2108 30.015 57.3296 29.9758 57.4089 29.9758C57.4089 29.8191 57.4089 29.7016 57.4089 29.6232C57.4881 29.5448 57.5277 29.4665 57.5277 29.3881C57.6862 29.3097 57.8447 29.1922 58.0032 29.0354C58.1617 28.8003 58.3201 28.6436 58.4786 28.5652C58.3201 28.2517 58.2409 28.0558 58.2409 27.9775V26.9195C58.3201 26.6844 58.439 26.4493 58.5975 26.2142C58.7559 25.9791 58.8748 25.8223 58.954 25.744C58.8748 25.6656 58.8352 25.5872 58.8352 25.5089C58.8352 25.4305 58.8352 25.3913 58.8352 25.3913C58.5182 25.7048 58.2805 25.9007 58.122 25.9791C58.0428 25.8223 58.0428 25.7048 58.122 25.6264C58.2013 25.4697 58.2013 25.3913 58.122 25.3913C58.0428 25.3913 57.9636 25.3913 57.8843 25.3913C57.8843 25.3129 57.8843 25.2738 57.8843 25.2738L58.122 24.9211C58.3597 25.1562 58.5578 25.2738 58.7163 25.2738C58.7956 25.0387 58.8748 24.8035 58.954 24.5684C59.0333 24.255 59.0729 24.0199 59.0729 23.8631C59.1521 23.8631 59.1918 23.8631 59.1918 23.8631C59.271 23.7848 59.3106 23.7456 59.3106 23.7456C59.2314 23.6672 59.1521 23.5497 59.0729 23.3929C59.0729 23.1578 59.0333 23.0011 58.954 22.9227V23.2754C58.6371 22.8052 58.5182 22.4525 58.5975 22.2174C58.5182 22.139 58.3994 22.0215 58.2409 21.8647C58.0824 21.708 57.9636 21.6296 57.8843 21.6296C57.7258 21.6296 57.6862 21.6688 57.7655 21.7472C57.8447 21.7472 57.8051 21.7472 57.6466 21.7472C57.4089 21.7472 57.2108 21.6688 57.0523 21.5121C56.9731 21.4337 56.8938 21.4337 56.8146 21.5121C56.3391 21.8256 55.8637 22.0998 55.3883 22.3349C54.9128 22.4917 54.477 22.7268 54.0808 23.0403C53.7639 23.197 53.3677 23.4713 52.8922 23.8631C52.496 24.255 52.0998 24.5293 51.7036 24.686C51.4659 24.7644 51.1886 24.8819 50.8716 25.0387C50.5547 25.1954 50.317 25.3521 50.1585 25.5089L49.3265 26.3317C48.7718 26.6452 48.1775 26.9587 47.5436 27.2721C46.9097 27.5072 46.355 27.8207 45.8796 28.2126C45.7211 28.3693 45.4041 28.6436 44.9287 29.0354C44.4533 29.3489 44.0967 29.5056 43.859 29.5056L43.5024 29.9758C43.0269 30.1326 42.6704 30.3285 42.4326 30.5636C42.3534 30.642 42.2346 30.7595 42.0761 30.9163C41.9968 30.9946 41.9176 31.0338 41.8384 31.0338C41.6799 31.1906 41.4818 31.2689 41.2441 31.2689C41.0856 31.2689 40.9271 31.3473 40.7686 31.504C40.0555 31.8175 39.3027 32.2877 38.5103 32.9147C37.7179 33.4632 36.5293 34.1685 34.9445 35.0306C34.5483 35.2657 34.271 35.54 34.1125 35.8535C34.0333 35.8535 33.9937 35.8535 33.9937 35.8535C33.9937 35.7751 33.9937 35.7359 33.9937 35.7359C33.8352 36.0494 33.6767 36.2061 33.5182 36.2061L31.0222 37.7343C30.8637 37.7343 30.8241 37.7343 30.9033 37.7343C30.9826 37.6559 30.943 37.6167 30.7845 37.6167C30.626 37.6167 30.5071 37.7343 30.4279 37.9694C30.4279 38.1261 30.3487 38.2437 30.1902 38.3221C29.5563 38.6355 28.6846 39.1449 27.5753 39.8502C26.5452 40.4772 25.7132 41.065 25.0792 41.6135C24.8415 41.6135 24.683 41.6527 24.6038 41.7311C23.8907 42.4364 23.2171 42.985 22.5832 43.3768C22.4247 43.4552 22.187 43.5727 21.8701 43.7295C21.6323 43.8078 21.3946 43.9254 21.1569 44.0821C21.1569 44.2389 20.8796 44.474 20.3249 44.7874C19.8494 45.1009 19.5325 45.2968 19.374 45.3752C19.2948 45.4536 19.1363 45.5319 18.8986 45.6103C18.7401 45.6887 18.5816 45.767 18.4231 45.8454C18.6609 46.2373 19.0571 46.5115 19.6117 46.6683C20.2456 46.825 20.7607 46.9818 21.1569 47.1385C21.4739 47.2169 22.1078 47.3344 23.0586 47.4911C24.0095 47.5695 24.683 47.6087 25.0792 47.6087C25.2377 47.6087 25.3962 47.5695 25.5547 47.4911C25.7924 47.3344 25.9509 47.256 26.0301 47.256C26.1886 47.256 26.5055 47.2952 26.981 47.3736C27.4564 47.452 27.813 47.5303 28.0507 47.6087C28.13 47.6087 28.1696 47.6479 28.1696 47.7262C28.2488 47.7262 28.2884 47.7262 28.2884 47.7262Z" fill="#BE968E"/>
</svg>
